/* XPM */
static char *player[] = {
/* columns rows colors chars-per-pixel */
"32 32 5 1 ",
"  c None",
". c #0000FF",
"X c #FFFF00",
"o c #FF0000",
"O c #000000",
/* pixels */
"                                ",
"            OOOOOO              ",
"          OOXXXXXXOO            ",
"         OXXXXXXXXXXO           ",
"        OXXXXXXXXXXXXO          ",
"        OXXXXXXXXXXXXO          ",
"       OXXXXXXXXXXXXXXO         ",
"       OXXXXXXXXXXXXXXO         ",
"       OXXXXXXXXXXXXXXO         ",
"       OXXXXXXXXXXXXXXO         ",
"        OXXXXXXXXXXXXO          ",
"        OXXXXXXXXXXXXO          ",
"          OOOOOOOOOO            ",
"        OO..........OO          ",
"       O....OOOOOO....O         ",
"      O.....O    O.....O        ",
"     O......O    O......O       ",
"     O......O    O......O       ",
"     O......O    O......O       ",
"     O.....OO    OO.....O       ",
"      O...OO      OO...O        ",
"       OOO          OOO         ",
"      O...O        O...O        ",
"     O.....O      O.....O       ",
"    O.......O    O.......O      ",
"    O.......O    O.......O      ",
"    O.......O    O.......O      ",
"    O.......O    O.......O      ",
"    OoooooooO    OoooooooO      ",
"     OOOOOOO      OOOOOOO       ",
"                                ",
"                                "
};
